<svg width="18" height="10" viewBox="0 0 18 10" fill="none" xmlns="http://www.w3.org/2000/svg">
<path d="M9.03516 0.128208C8.88984 0.123242 8.74517 0.150027 8.61126 0.206695C8.47734 0.263364 8.35739 0.348554 8.25978 0.456328L1.25781 8.17899C1.16508 8.2754 1.09264 8.38943 1.04476 8.51434C0.996886 8.63925 0.974555 8.77249 0.979091 8.90619C0.983626 9.03988 1.01494 9.1713 1.07117 9.29268C1.1274 9.41405 1.20741 9.52292 1.30646 9.61282C1.40551 9.70272 1.52159 9.77184 1.64783 9.81609C1.77407 9.86033 1.90791 9.8788 2.04141 9.8704C2.17492 9.862 2.30538 9.82691 2.42508 9.76719C2.54478 9.70747 2.65128 9.62435 2.73829 9.52274L9 2.61649L15.2617 9.52274C15.3487 9.62435 15.4552 9.70747 15.5749 9.76719C15.6946 9.82691 15.8251 9.862 15.9586 9.8704C16.0921 9.8788 16.2259 9.86033 16.3522 9.81609C16.4784 9.77184 16.5945 9.70272 16.6935 9.61282C16.7926 9.52292 16.8726 9.41405 16.9288 9.29268C16.9851 9.1713 17.0164 9.03988 17.0209 8.90619C17.0255 8.77249 17.0031 8.63925 16.9552 8.51434C16.9074 8.38943 16.8349 8.2754 16.7422 8.17899L9.74023 0.456328C9.65058 0.357325 9.542 0.277283 9.4209 0.220929C9.2998 0.164574 9.16864 0.133047 9.03516 0.128208V0.128208Z" fill="white"/>
</svg>
