<svg width="6" height="6" viewBox="0 0 6 6" fill="none" xmlns="http://www.w3.org/2000/svg">
<path d="M3.76999 3.26C3.76299 3.254 3.75699 3.249 3.74999 3.243C4.17099 2.59 4.095 1.71 3.524 1.139C2.865 0.480003 1.79699 0.480003 1.13899 1.139C0.479995 1.798 0.479995 2.866 1.13899 3.525C1.70999 4.096 2.59 4.17 3.243 3.75C3.249 3.757 3.254 3.763 3.26 3.769L4.76599 5.275C4.87099 5.382 5.04699 5.382 5.15499 5.275L5.27499 5.154C5.38099 5.049 5.38099 4.873 5.27499 4.765L3.76999 3.26ZM3.222 3.222C2.73 3.714 1.93199 3.714 1.44099 3.222C0.948995 2.73 0.948995 1.933 1.44099 1.441C1.93299 0.950003 2.731 0.950003 3.222 1.441C3.714 1.933 3.714 2.73 3.222 3.222Z" fill="white"/>
</svg>
