<svg width="18" height="10" viewBox="0 0 18 10" fill="none" xmlns="http://www.w3.org/2000/svg">
<path d="M8.96484 9.87179C9.11016 9.87676 9.25483 9.84997 9.38874 9.7933C9.52266 9.73664 9.64261 9.65145 9.74022 9.54367L16.7422 1.82101C16.8349 1.7246 16.9074 1.61057 16.9552 1.48566C17.0031 1.36075 17.0254 1.22751 17.0209 1.09381C17.0164 0.960123 16.9851 0.828699 16.9288 0.707323C16.8726 0.585947 16.7926 0.477085 16.6935 0.38718C16.5945 0.297276 16.4784 0.228156 16.3522 0.183912C16.2259 0.139668 16.0921 0.121199 15.9586 0.129599C15.8251 0.137998 15.6946 0.173094 15.5749 0.232811C15.4552 0.292528 15.3487 0.375653 15.2617 0.477262L9 7.38351L2.73827 0.477262C2.65127 0.375653 2.54477 0.292528 2.42507 0.232811C2.30537 0.173094 2.17491 0.137998 2.0414 0.129599C1.9079 0.121199 1.77406 0.139668 1.64782 0.183912C1.52158 0.228156 1.4055 0.297276 1.30645 0.38718C1.2074 0.477085 1.12739 0.585947 1.07116 0.707323C1.01493 0.828699 0.983616 0.960123 0.97908 1.09381C0.974545 1.22751 0.996876 1.36075 1.04475 1.48566C1.09263 1.61057 1.16507 1.7246 1.25781 1.82101L8.25977 9.54367C8.34942 9.64268 8.458 9.72272 8.5791 9.77907C8.7002 9.83543 8.83136 9.86695 8.96484 9.87179V9.87179Z" fill="white"/>
</svg>
